<svg width="23" height="23" viewBox="0 0 23 23" fill="none" xmlns="http://www.w3.org/2000/svg">
<path d="M11.5 0C9.22552 0 7.00211 0.674463 5.11095 1.9381C3.21978 3.20173 1.7458 4.99779 0.87539 7.09914C0.00498274 9.20049 -0.222756 11.5128 0.220974 13.7435C0.664704 15.9743 1.75997 18.0234 3.36828 19.6317C4.97658 21.24 7.02568 22.3353 9.25646 22.779C11.4872 23.2228 13.7995 22.995 15.9009 22.1246C18.0022 21.2542 19.7983 19.7802 21.0619 17.8891C22.3255 15.9979 23 13.7745 23 11.5C22.9933 8.45206 21.7796 5.53086 19.6244 3.37564C17.4691 1.22041 14.5479 0.00666867 11.5 0ZM11.5 21.0618C9.61384 21.0618 7.77004 20.5025 6.20176 19.4546C4.63348 18.4067 3.41115 16.9173 2.68935 15.1747C1.96755 13.4322 1.77869 11.5147 2.14666 9.66475C2.51463 7.81483 3.4229 6.11557 4.75662 4.78186C6.09033 3.44814 7.78959 2.53987 9.63951 2.1719C11.4894 1.80393 13.4069 1.99279 15.1495 2.71459C16.8921 3.43639 18.3815 4.65872 19.4294 6.227C20.4773 7.79528 21.0366 9.63908 21.0366 11.5252C21.0299 14.0522 20.0229 16.4737 18.2359 18.2603C16.4488 20.0468 14.027 21.0531 11.5 21.059V21.0618Z" fill="#007E47"/>
<path d="M11.5001 4.79883C10.4586 4.79883 9.45981 5.21255 8.72338 5.94897C7.98696 6.68539 7.57324 7.6842 7.57324 8.72566H9.53666C9.53666 8.33733 9.65181 7.95772 9.86755 7.63484C10.0833 7.31196 10.3899 7.0603 10.7487 6.9117C11.1075 6.76309 11.5022 6.72421 11.8831 6.79997C12.264 6.87573 12.6138 7.06272 12.8884 7.33731C13.163 7.6119 13.35 7.96175 13.4258 8.34261C13.5015 8.72348 13.4626 9.11826 13.314 9.47702C13.1654 9.83579 12.9138 10.1424 12.5909 10.3582C12.268 10.5739 11.8884 10.6891 11.5001 10.6891H10.5184V14.6916H12.4818V12.5403C13.4162 12.3092 14.2333 11.743 14.7777 10.9491C15.3221 10.1552 15.5559 9.18904 15.4348 8.23408C15.3137 7.27912 14.846 6.40193 14.1206 5.76914C13.3952 5.13635 12.4626 4.79204 11.5001 4.80163V4.79883Z" fill="#007E47"/>
<path d="M12.482 16.3389H10.5186V18.0555H12.482V16.3389Z" fill="#007E47"/>
</svg>
