<svg width="15" height="23" viewBox="0 0 15 23" fill="none" xmlns="http://www.w3.org/2000/svg">
<path fill-rule="evenodd" clip-rule="evenodd" d="M11.7587 22.3297H2.8076C1.25958 22.3297 0 20.905 0 19.1531V3.17664C0 1.42468 1.25958 0 2.8076 0H11.7587C13.3067 0 14.5663 1.42468 14.5663 3.17664V19.1531C14.5663 20.905 13.3067 22.3297 11.7587 22.3297ZM12.6211 2.91831C12.6211 2.1074 12.288 1.94716 11.6499 1.94716H2.90957C2.27152 1.94716 1.93842 2.1074 1.93842 2.91831V3.97104H12.6211V2.91831ZM12.6211 5.83176H1.93842V14.5721H12.6211V5.83176ZM12.6211 16.5144H1.93842V19.4279C1.93842 20.2388 2.27152 20.399 2.90957 20.399H11.6499C12.288 20.399 12.6211 20.2388 12.6211 19.4279V16.5144ZM8.73648 19.4279H5.82302C5.36755 19.4279 5.09466 19.5143 5.09466 19.0433C5.09466 18.5723 5.36755 18.4567 5.82302 18.4567H8.73648C9.19195 18.4567 9.47164 18.5723 9.47164 19.0433C9.47164 19.5143 9.19195 19.4279 8.73648 19.4279Z" fill="#2E2E2E"/>
</svg>
