<svg width="29" height="28" viewBox="0 0 29 28" fill="none" xmlns="http://www.w3.org/2000/svg">
<path fill-rule="evenodd" clip-rule="evenodd" d="M28.044 13.65C28.044 20.9629 22.0907 26.8909 14.7457 26.8909C12.414 26.8909 10.2234 26.2929 8.31754 25.2434L0.955078 27.591L3.35545 20.4869C2.14458 18.4917 1.44719 16.1517 1.44719 13.65C1.44719 6.33723 7.40103 0.40918 14.7457 0.40918C22.0913 0.40918 28.044 6.33723 28.044 13.65ZM14.7457 2.51788C8.5803 2.51788 3.56524 7.51179 3.56524 13.65C3.56524 16.0858 4.35654 18.3416 5.69503 20.1767L4.29815 24.3111L8.59475 22.9408C10.36 24.1039 12.4748 24.7822 14.746 24.7822C20.9106 24.7822 25.9265 19.7889 25.9265 13.6507C25.9265 7.51239 20.9109 2.51788 14.7457 2.51788ZM21.0127 16.4068C21.2407 16.5165 21.3948 16.5906 21.4611 16.6995C21.542 16.8349 21.542 17.4845 21.2711 18.2432C20.9984 19.0006 19.6675 19.7315 19.0703 19.7856C18.9679 19.7949 18.8831 19.8153 18.7961 19.8363C18.3753 19.9376 17.9049 20.0509 15.1584 18.9744C12.0959 17.7734 10.0773 14.7924 9.66017 14.1763C9.62592 14.1257 9.60247 14.0911 9.59011 14.0747L9.58957 14.074C9.42411 13.855 8.25915 12.3137 8.25915 10.7183C8.25915 9.22426 8.9962 8.44067 9.3356 8.07984C9.35893 8.05504 9.38038 8.03223 9.39959 8.01133C9.69847 7.68666 10.0518 7.60541 10.2691 7.60541C10.3815 7.60541 10.4939 7.61268 10.6025 7.61969C10.704 7.62625 10.8022 7.6326 10.894 7.6326C10.9168 7.6326 10.9407 7.63105 10.9657 7.62944C11.1494 7.61757 11.3882 7.60214 11.6272 8.17382C11.7142 8.38214 11.8404 8.68776 11.9743 9.01225C12.2583 9.70015 12.5773 10.4728 12.6325 10.583C12.7144 10.7458 12.7688 10.9352 12.6596 11.1517C12.6441 11.1829 12.6297 11.2124 12.6159 11.2405C12.5337 11.4085 12.4739 11.5308 12.3339 11.6933C12.28 11.756 12.2242 11.8236 12.1684 11.8912C12.0558 12.0277 11.943 12.1643 11.8448 12.2617C11.682 12.4232 11.5119 12.5987 11.7018 12.9234C11.8921 13.2487 12.5464 14.3106 13.5153 15.1707C14.5575 16.096 15.4631 16.4871 15.9216 16.6852C16.0109 16.7237 16.0832 16.755 16.1363 16.7814C16.4626 16.9439 16.6525 16.9167 16.8427 16.6995C17.0332 16.483 17.6581 15.7524 17.8751 15.4274C18.0921 15.1028 18.31 15.1571 18.6089 15.2653C18.9069 15.3731 20.5099 16.1586 20.8362 16.3208C20.8992 16.3522 20.9581 16.3805 21.0127 16.4068Z" fill="#007E47"/>
</svg>
